<svg width="18" height="17" viewBox="0 0 18 17" fill="none" xmlns="http://www.w3.org/2000/svg">
<path fill-rule="evenodd" clip-rule="evenodd" d="M7.27374 2.5C4.90414 2.5 2.9832 4.29086 2.9832 6.5C2.9832 8.7091 4.90414 10.5 7.27374 10.5C9.64329 10.5 11.5643 8.7091 11.5643 6.5C11.5643 4.29086 9.64329 2.5 7.27374 2.5ZM0.837891 6.5C0.837891 3.18629 3.7193 0.5 7.27369 0.5C10.8281 0.5 13.7095 3.18629 13.7095 6.5C13.7095 7.79583 13.2689 8.9957 12.5196 9.9765L17.6859 14.7929C18.1047 15.1834 18.1047 15.8166 17.6859 16.2071C17.267 16.5976 16.5878 16.5976 16.1689 16.2071L11.0027 11.3907C9.95066 12.0892 8.66364 12.5 7.27369 12.5C3.7193 12.5 0.837891 9.8137 0.837891 6.5Z" fill="#67748E"/>
</svg>
