<svg width="47" height="47" viewBox="0 0 47 47" fill="none" xmlns="http://www.w3.org/2000/svg">
<path d="M23.5 0C10.528 0 0 10.528 0 23.5C0 36.472 10.528 47 23.5 47C36.472 47 47 36.472 47 23.5C47 10.528 36.472 0 23.5 0ZM23.5 7.05C27.401 7.05 30.55 10.199 30.55 14.1C30.55 18.001 27.401 21.15 23.5 21.15C19.599 21.15 16.45 18.001 16.45 14.1C16.45 10.199 19.599 7.05 23.5 7.05ZM23.5 40.42C17.625 40.42 12.4315 37.412 9.4 32.853C9.4705 28.1765 18.8 25.615 23.5 25.615C28.1765 25.615 37.5295 28.1765 37.6 32.853C34.5685 37.412 29.375 40.42 23.5 40.42Z" fill="#838687"/>
</svg>
