<svg width="18" height="18" viewBox="0 0 18 18" fill="none" xmlns="http://www.w3.org/2000/svg">
<g id="Iconly/Bold/Logout">
<g id="Logout">
<path id="Vector" d="M8.45375 0.591797C10.5108 0.591797 12.1886 2.24075 12.1886 4.27087V8.23995H7.13013C6.76761 8.23995 6.48096 8.52168 6.48096 8.87799C6.48096 9.22601 6.76761 9.51603 7.13013 9.51603H12.1886V13.4768C12.1886 15.5069 10.5108 17.1642 8.43689 17.1642H4.33113C2.2656 17.1642 0.587891 15.5152 0.587891 13.4851V4.27915C0.587891 2.24075 2.27403 0.591797 4.33956 0.591797H8.45375ZM14.2934 6.01942C14.542 5.76255 14.948 5.76255 15.1966 6.01113L17.6162 8.42242C17.7405 8.54671 17.8068 8.70415 17.8068 8.87816C17.8068 9.04388 17.7405 9.2096 17.6162 9.32561L15.1966 11.7369C15.0723 11.8612 14.9066 11.9275 14.7492 11.9275C14.5834 11.9275 14.4177 11.8612 14.2934 11.7369C14.0448 11.4883 14.0448 11.0823 14.2934 10.8337L15.6192 9.51619H12.1887V8.24012H15.6192L14.2934 6.92261C14.0448 6.67403 14.0448 6.26801 14.2934 6.01942Z" fill="white"/>
</g>
</g>
</svg>
