<svg width="27" height="31" viewBox="0 0 27 31" fill="none" xmlns="http://www.w3.org/2000/svg">
<path d="M13.5455 0.0909424C7.34849 0.0909424 2.32478 5.11466 2.32478 11.3117V18.0176L1.00239 19.34C0.467532 19.8749 0.307542 20.6792 0.597001 21.3781C0.88646 22.077 1.56838 22.5325 2.32478 22.5325H24.7663C25.5228 22.5325 26.2046 22.077 26.4941 21.3781C26.7836 20.6792 26.6235 19.8749 26.0887 19.34L24.7663 18.0176V11.3117C24.7663 5.11466 19.7426 0.0909424 13.5455 0.0909424Z" fill="#67748E"/>
<path d="M13.5457 30.0129C10.4472 30.0129 7.9353 27.5011 7.9353 24.4025H19.1561C19.1561 27.5011 16.6443 30.0129 13.5457 30.0129Z" fill="#67748E"/>
</svg>
