<svg width="17" height="17" viewBox="0 0 17 17" fill="none" xmlns="http://www.w3.org/2000/svg">
<g id="Frame">
<path id="Vector" d="M6.89055 10.1212L3.57947 6.8101L6.89055 3.49902" stroke="#667A8A" stroke-width="1.32443" stroke-linecap="round" stroke-linejoin="round"/>
<path id="Vector_2" d="M3.57947 6.81055H10.5327C11.011 6.81055 11.4847 6.90476 11.9265 7.08779C12.3684 7.27083 12.7699 7.53911 13.1082 7.87732C13.4464 8.21553 13.7146 8.61704 13.8977 9.05893C14.0807 9.50082 14.1749 9.97444 14.1749 10.4527C14.1749 10.931 14.0807 11.4047 13.8977 11.8465C13.7146 12.2884 13.4464 12.6899 13.1082 13.0282C12.7699 13.3664 12.3684 13.6346 11.9265 13.8177C11.4847 14.0007 11.011 14.0949 10.5327 14.0949H8.21498" stroke="#667A8A" stroke-width="1.32443" stroke-linecap="round" stroke-linejoin="round"/>
</g>
</svg>
